<svg width="512" height="512" viewBox="0 0 512 512" fill="none" xmlns="http://www.w3.org/2000/svg">
<rect width="512" height="512" rx="100" fill="white"/>
<path d="M255.877 288.313L230.01 314.206C235.932 324.176 239.333 335.822 239.333 348.263C239.333 385.12 209.486 415 172.667 415C135.848 415 106 385.12 106 348.263C106 311.406 135.848 281.526 172.667 281.526C184.965 281.526 196.486 284.86 206.377 290.674L232.305 264.719L162.557 194.895L186.127 171.3L255.877 241.122L325.698 171.228L349.268 194.823L279.447 264.719L305.467 290.766C315.392 284.895 326.97 281.526 339.333 281.526C376.152 281.526 406 311.406 406 348.263C406 385.12 376.152 415 339.333 415C302.515 415 272.667 385.12 272.667 348.263C272.667 335.887 276.032 324.296 281.897 314.361L255.877 288.313ZM172.667 381.632C191.076 381.632 206 366.693 206 348.263C206 329.834 191.076 314.895 172.667 314.895C154.257 314.895 139.333 329.834 139.333 348.263C139.333 366.693 154.257 381.632 172.667 381.632ZM339.333 381.632C357.743 381.632 372.667 366.693 372.667 348.263C372.667 329.834 357.743 314.895 339.333 314.895C320.923 314.895 306 329.834 306 348.263C306 366.693 320.923 381.632 339.333 381.632ZM372.667 264.842V131.368H139.333V264.842H106V114.684C106 105.47 113.462 98 122.667 98H389.333C398.538 98 406 105.47 406 114.684V264.842H372.667Z" fill="url(#paint0_linear_60_6)"/>
<defs>
<linearGradient id="paint0_linear_60_6" x1="256" y1="98" x2="256" y2="415" gradientUnits="userSpaceOnUse">
<stop stop-color="#64B5F6"/>
<stop offset="1" stop-color="#1E88E5"/>
</linearGradient>
</defs>
</svg>
